

The.Muppets.2011.DVDSCR.XviD-SiC
 
http://www.imdb.com/title/tt1204342/

With the help of three fans, The Muppets 
must reunite to save their old theater 
from a greedy oil tycoon.

Video
ID                               : 0
Format                           : MPEG-4 Visual
Format profile                   : Advanced Simple@L5
Format settings, BVOP            : 2
Format settings, QPel            : No
Format settings, GMC             : No warppoints
Format settings, Matrix          : Default (H.263)
Muxing mode                      : Packed bitstream
Codec ID                         : XVID
Codec ID/Hint                    : XviD
Duration                         : 1h 42mn
Bit rate                         : 1 774 Kbps
Width                            : 720 pixels
Height                           : 400 pixels
Display aspect ratio             : 16:9
Frame rate                       : 23.976 fps
Color space                      : YUV
Chroma subsampling               : 4:2:0
Bit depth                        : 8 bits
Scan type                        : Progressive
Compression mode                 : Lossy
Bits/(Pixel*Frame)               : 0.257
Stream size                      : 1.27 GiB (93%)
Writing library                  : XviD 64

Audio
ID                               : 1
Format                           : MPEG Audio
Format version                   : Version 1R
Format profile                   : Layer 3
Mode                             : Joint stereo
Codec ID                         : 55
Codec ID/Hint                    : MP3
Duration                         : 1h 42mn
Bit rate mode                    : Constant
Bit rate                         : 128 Kbps
Channel(s)                       : 2 channels
Sampling rate                    : 44.1 KHz
Compression mode                 : Lossy
Delay relative to video          : 17ms
Stream size                      : 93.5 MiB (7%)
Alignment                        : Split accross interleaves
Interleave, duration             : 42 ms (1.00 video frame)

Screens:

[img]http://img853.imageshack.us/img853/4645/j4nrm.png[/img]
[img]http://img190.imageshack.us/img190/3853/hsafx.png[/img]
[img]http://img860.imageshack.us/img860/9085/k1a2v.png[/img]
[img]http://img43.imageshack.us/img43/2622/o6mmp.png[/img]
[img]http://img205.imageshack.us/img205/3018/0hcnj.png[/img][/center]